<svg width="24" height="25" viewBox="0 0 24 25" fill="none" xmlns="http://www.w3.org/2000/svg">
<path d="M20.4467 20.9254H16.8933V15.3561C16.8933 14.0281 16.8667 12.3187 15.04 12.3187C13.188 12.3187 12.9053 13.7641 12.9053 15.2587V20.9254H9.35067V9.47339H12.764V11.0334H12.8107C13.288 10.1347 14.448 9.18406 16.1813 9.18406C19.7813 9.18406 20.448 11.5547 20.448 14.6387V20.9254H20.4467ZM5.33733 7.90672C5.06607 7.90707 4.79741 7.85388 4.54675 7.7502C4.29609 7.64651 4.06836 7.49437 3.87661 7.3025C3.68486 7.11063 3.53287 6.8828 3.42935 6.63207C3.32582 6.38134 3.27281 6.11265 3.27333 5.84139C3.2736 5.43317 3.39491 5.03419 3.62192 4.69492C3.84894 4.35564 4.17146 4.0913 4.54871 3.93533C4.92595 3.77935 5.34098 3.73874 5.74131 3.81864C6.14163 3.89854 6.50927 4.09536 6.79774 4.3842C7.08621 4.67304 7.28255 5.04094 7.36193 5.44136C7.44131 5.84179 7.40017 6.25677 7.24371 6.63381C7.08725 7.01086 6.82249 7.33304 6.48292 7.55962C6.14335 7.78619 5.74422 7.90699 5.336 7.90672H5.33733ZM7.11867 20.9254H3.55467V9.47339H7.12V20.9254H7.11867ZM22.2267 0.473389H1.772C0.790667 0.473389 0 1.24672 0 2.20272V22.7441C0 23.7001 0.792 24.4734 1.77067 24.4734H22.2213C23.2 24.4734 24 23.7001 24 22.7441V2.20272C24 1.24672 23.2 0.473389 22.2213 0.473389H22.2253H22.2267Z" fill="#203663"/>
</svg>
