<svg width="28" height="23" viewBox="0 0 28 23" fill="none" xmlns="http://www.w3.org/2000/svg">
<path d="M27.5494 3.01475C26.5315 3.465 25.452 3.76071 24.3467 3.89208C25.5117 3.19532 26.3837 2.09877 26.8001 0.806746C25.7067 1.45741 24.5081 1.91341 23.2587 2.16008C22.4195 1.26218 21.3072 0.666697 20.0947 0.466193C18.8821 0.265688 17.6373 0.471401 16.5538 1.05135C15.4702 1.6313 14.6086 2.55299 14.1029 3.67314C13.5972 4.79328 13.4757 6.04912 13.7574 7.24541C11.5402 7.13429 9.37118 6.55811 7.39112 5.5543C5.41106 4.55049 3.66424 3.14148 2.26407 1.41875C1.76846 2.27001 1.50801 3.23772 1.5094 4.22275C1.5094 6.15608 2.4934 7.86408 3.9894 8.86408C3.10408 8.83621 2.23825 8.59712 1.46407 8.16675V8.23608C1.46434 9.52368 1.9099 10.7716 2.7252 11.7682C3.54051 12.7648 4.67538 13.4487 5.9374 13.7041C5.11556 13.9268 4.25381 13.9596 3.4174 13.8001C3.77323 14.9084 4.46675 15.8777 5.40086 16.5722C6.33497 17.2668 7.46291 17.6518 8.62674 17.6734C7.47004 18.5818 6.14564 19.2534 4.72924 19.6496C3.31285 20.0459 1.83224 20.1591 0.37207 19.9827C2.921 21.622 5.8882 22.4922 8.91874 22.4894C19.1761 22.4894 24.7854 13.9921 24.7854 6.62275C24.7854 6.38275 24.7787 6.14008 24.7681 5.90275C25.8599 5.11364 26.8022 4.13611 27.5507 3.01608L27.5494 3.01475Z" fill="#203663"/>
</svg>
