<svg id="Layer_1" data-name="Layer 1" xmlns="http://www.w3.org/2000/svg" viewBox="0 0 800 600"><defs><style>.cls-1{fill:#2b388e;}.cls-2{fill:#00aced;}</style></defs><path class="cls-1" d="M560.64,407.27a277.12,277.12,0,0,1-33.13,58.29,280.28,280.28,0,0,1-58.29,58.23c-6.61,4.93-13.45,9.49-20.48,13.81a277.24,277.24,0,0,1-144.91,40.64c-1.56,0-3.18,0-4.74-.06a278.34,278.34,0,0,1-116.28-27.55,276.57,276.57,0,0,1-44.36-26.84c-1.8-1.32-3.61-2.64-5.35-4a284.31,284.31,0,0,1-43.94-42.68q-4.68-5.67-9-11.53a273.56,273.56,0,0,1-27.62-46c-2-4-3.78-8.16-5.52-12.31a279.4,279.4,0,0,1-17.17-58.22c-.66-3.91-1.26-7.87-1.8-11.83A282.38,282.38,0,0,1,25.59,300a278.54,278.54,0,0,1,8.22-67.41,277.19,277.19,0,0,1,21.73-58.23A273.74,273.74,0,0,1,95,116.07a280.5,280.5,0,0,1,69.34-56.91c.78-.42,1.56-.9,2.34-1.32A277.76,277.76,0,0,1,303.83,21.76c2.88,0,5.7.06,8.59.18a276.19,276.19,0,0,1,60.63,8.52,271.68,271.68,0,0,1,54.86,20.41c4.45,2.22,8.77,4.51,13,7a275.68,275.68,0,0,1,71.68,58.23H422.81a216.72,216.72,0,0,0-76.54-31A219.79,219.79,0,0,0,303.83,81c-7,0-14.05.36-20.89,1a217.09,217.09,0,0,0-75.22,21.13,222.74,222.74,0,0,0-22.87,13,220.16,220.16,0,0,0-60.51,58.29,216.56,216.56,0,0,0-29.06,58.23,218.85,218.85,0,0,0-8.64,38.3A222.39,222.39,0,0,0,84.72,300a218.88,218.88,0,0,0,4.56,44.66l.9,4.39a217.21,217.21,0,0,0,22.57,58.22c1.86,3.31,3.79,6.61,5.89,9.79a219,219,0,0,0,41.24,48.08l-.18.42h.66a218.71,218.71,0,0,0,48.56,31.88,215.54,215.54,0,0,0,56,18.13,219.33,219.33,0,0,0,39,3.48A219.87,219.87,0,0,0,405.1,494.26a219.49,219.49,0,0,0,89.69-87Z"/><path class="cls-2" d="M774.41,138l-17.83,36.32L728,232.59H381.49A68.44,68.44,0,0,0,320,270.89h0l-38.36,78.16-28.57,58.22-28.58,58.29-15.61,31.88a218.71,218.71,0,0,1-48.56-31.88,3.43,3.43,0,0,0-.48-.42,219,219,0,0,1-41.24-48.08l4.8-9.79L152,349.05l38.36-78.16,18.79-38.3,28.52-58.23h0A64.91,64.91,0,0,1,295.9,138Z"/><path class="cls-2" d="M709.28,285.6l-38.36,78.16H346.57l24-49.06a52,52,0,0,1,46.66-29.1Z"/></svg>